<mxfile host="app.diagrams.net" modified="2023-09-03T02:52:54.171Z" agent="Mozilla/5.0 (Macintosh; Intel Mac OS X 10_15_7) AppleWebKit/537.36 (KHTML, like Gecko) Chrome/116.0.0.0 Safari/537.36" etag="w5hfnVBAuTfid6oZlbfS" version="21.7.0" type="github">
  <diagram name="Page-1" id="gPwcuL1_YdHnYgI45rxT">
    <mxGraphModel dx="1247" dy="1159" grid="1" gridSize="10" guides="1" tooltips="1" connect="1" arrows="1" fold="1" page="1" pageScale="1" pageWidth="827" pageHeight="1169" math="0" shadow="0">
      <root>
        <mxCell id="0" />
        <mxCell id="1" parent="0" />
        <mxCell id="X650mghGrq5uzrF1-Gm_-1" value="Pool" style="swimlane;childLayout=stackLayout;resizeParent=1;resizeParentMax=0;startSize=20;horizontal=0;horizontalStack=1;" parent="1" vertex="1">
          <mxGeometry x="980" y="54" width="1400" height="1201" as="geometry">
            <mxRectangle x="1210" width="40" height="60" as="alternateBounds" />
          </mxGeometry>
        </mxCell>
        <mxCell id="X650mghGrq5uzrF1-Gm_-2" value="permission" style="swimlane;startSize=20;" parent="X650mghGrq5uzrF1-Gm_-1" vertex="1">
          <mxGeometry x="20" width="190" height="1201" as="geometry" />
        </mxCell>
        <mxCell id="X650mghGrq5uzrF1-Gm_-3" value="LookupSubjects" style="rounded=1;whiteSpace=wrap;html=1;" parent="X650mghGrq5uzrF1-Gm_-2" vertex="1">
          <mxGeometry x="35" y="100" width="100" height="40" as="geometry" />
        </mxCell>
        <mxCell id="X650mghGrq5uzrF1-Gm_-4" value="cacheing.Dispatcher" style="swimlane;startSize=20;" parent="X650mghGrq5uzrF1-Gm_-1" vertex="1">
          <mxGeometry x="210" width="190" height="1201" as="geometry" />
        </mxCell>
        <mxCell id="X650mghGrq5uzrF1-Gm_-5" value="DispatchLookupSubjects" style="rounded=1;whiteSpace=wrap;html=1;" parent="X650mghGrq5uzrF1-Gm_-4" vertex="1">
          <mxGeometry x="22.5" y="100" width="145" height="40" as="geometry" />
        </mxCell>
        <mxCell id="X650mghGrq5uzrF1-Gm_-6" value="localDispatcher" style="swimlane;startSize=20;" parent="X650mghGrq5uzrF1-Gm_-1" vertex="1">
          <mxGeometry x="400" width="190" height="1201" as="geometry" />
        </mxCell>
        <mxCell id="X650mghGrq5uzrF1-Gm_-7" value="DispatchLookupSubjects" style="rounded=1;whiteSpace=wrap;html=1;" parent="X650mghGrq5uzrF1-Gm_-6" vertex="1">
          <mxGeometry x="17.5" y="100" width="155" height="40" as="geometry" />
        </mxCell>
        <mxCell id="X650mghGrq5uzrF1-Gm_-8" value="lookupSubjectsHandler" style="swimlane;startSize=20;" parent="X650mghGrq5uzrF1-Gm_-1" vertex="1">
          <mxGeometry x="590" width="560" height="1201" as="geometry" />
        </mxCell>
        <mxCell id="X650mghGrq5uzrF1-Gm_-9" value="" style="edgeStyle=orthogonalEdgeStyle;rounded=0;orthogonalLoop=1;jettySize=auto;html=1;" parent="X650mghGrq5uzrF1-Gm_-8" source="X650mghGrq5uzrF1-Gm_-10" target="X650mghGrq5uzrF1-Gm_-12" edge="1">
          <mxGeometry relative="1" as="geometry" />
        </mxCell>
        <mxCell id="X650mghGrq5uzrF1-Gm_-10" value="LookupSubjects" style="rounded=1;whiteSpace=wrap;html=1;" parent="X650mghGrq5uzrF1-Gm_-8" vertex="1">
          <mxGeometry x="195" y="100" width="100" height="40" as="geometry" />
        </mxCell>
        <mxCell id="X650mghGrq5uzrF1-Gm_-11" value="" style="edgeStyle=orthogonalEdgeStyle;rounded=0;orthogonalLoop=1;jettySize=auto;html=1;" parent="X650mghGrq5uzrF1-Gm_-8" source="X650mghGrq5uzrF1-Gm_-12" target="X650mghGrq5uzrF1-Gm_-15" edge="1">
          <mxGeometry relative="1" as="geometry" />
        </mxCell>
        <mxCell id="X650mghGrq5uzrF1-Gm_-12" value="对象与主体&lt;br&gt;类型和关系&lt;br&gt;一致" style="rhombus;whiteSpace=wrap;html=1;rounded=1;" parent="X650mghGrq5uzrF1-Gm_-8" vertex="1">
          <mxGeometry x="205" y="200" width="80" height="80" as="geometry" />
        </mxCell>
        <mxCell id="X650mghGrq5uzrF1-Gm_-13" style="edgeStyle=orthogonalEdgeStyle;rounded=0;orthogonalLoop=1;jettySize=auto;html=1;" parent="X650mghGrq5uzrF1-Gm_-8" source="X650mghGrq5uzrF1-Gm_-15" target="X650mghGrq5uzrF1-Gm_-17" edge="1">
          <mxGeometry relative="1" as="geometry" />
        </mxCell>
        <mxCell id="X650mghGrq5uzrF1-Gm_-14" style="edgeStyle=orthogonalEdgeStyle;rounded=0;orthogonalLoop=1;jettySize=auto;html=1;" parent="X650mghGrq5uzrF1-Gm_-8" source="X650mghGrq5uzrF1-Gm_-15" target="X650mghGrq5uzrF1-Gm_-19" edge="1">
          <mxGeometry relative="1" as="geometry" />
        </mxCell>
        <mxCell id="X650mghGrq5uzrF1-Gm_-15" value="relation&lt;br&gt;是否重写" style="rhombus;whiteSpace=wrap;html=1;rounded=1;" parent="X650mghGrq5uzrF1-Gm_-8" vertex="1">
          <mxGeometry x="205" y="336" width="80" height="80" as="geometry" />
        </mxCell>
        <mxCell id="X650mghGrq5uzrF1-Gm_-16" value="" style="edgeStyle=orthogonalEdgeStyle;rounded=0;orthogonalLoop=1;jettySize=auto;html=1;" parent="X650mghGrq5uzrF1-Gm_-8" source="X650mghGrq5uzrF1-Gm_-17" target="X650mghGrq5uzrF1-Gm_-21" edge="1">
          <mxGeometry relative="1" as="geometry" />
        </mxCell>
        <mxCell id="X650mghGrq5uzrF1-Gm_-17" value="lookupDirectSubjects" style="rounded=1;whiteSpace=wrap;html=1;" parent="X650mghGrq5uzrF1-Gm_-8" vertex="1">
          <mxGeometry x="385" y="356" width="130" height="40" as="geometry" />
        </mxCell>
        <mxCell id="X650mghGrq5uzrF1-Gm_-18" style="edgeStyle=orthogonalEdgeStyle;rounded=0;orthogonalLoop=1;jettySize=auto;html=1;" parent="X650mghGrq5uzrF1-Gm_-8" source="X650mghGrq5uzrF1-Gm_-19" target="X650mghGrq5uzrF1-Gm_-23" edge="1">
          <mxGeometry relative="1" as="geometry">
            <mxPoint x="245" y="676" as="targetPoint" />
          </mxGeometry>
        </mxCell>
        <mxCell id="X650mghGrq5uzrF1-Gm_-19" value="lookupViaRewrite" style="rounded=1;whiteSpace=wrap;html=1;" parent="X650mghGrq5uzrF1-Gm_-8" vertex="1">
          <mxGeometry x="180" y="466" width="130" height="44" as="geometry" />
        </mxCell>
        <mxCell id="X650mghGrq5uzrF1-Gm_-20" style="edgeStyle=orthogonalEdgeStyle;rounded=0;orthogonalLoop=1;jettySize=auto;html=1;" parent="X650mghGrq5uzrF1-Gm_-8" source="X650mghGrq5uzrF1-Gm_-21" target="X650mghGrq5uzrF1-Gm_-22" edge="1">
          <mxGeometry relative="1" as="geometry" />
        </mxCell>
        <mxCell id="X650mghGrq5uzrF1-Gm_-21" value="非rewrite&lt;br&gt;关系" style="rhombus;whiteSpace=wrap;html=1;rounded=1;" parent="X650mghGrq5uzrF1-Gm_-8" vertex="1">
          <mxGeometry x="410" y="456" width="80" height="80" as="geometry" />
        </mxCell>
        <mxCell id="X650mghGrq5uzrF1-Gm_-22" value="dispatchTo" style="rounded=1;whiteSpace=wrap;html=1;" parent="X650mghGrq5uzrF1-Gm_-8" vertex="1">
          <mxGeometry x="385" y="606" width="130" height="40" as="geometry" />
        </mxCell>
        <mxCell id="X650mghGrq5uzrF1-Gm_-23" value="重写类型" style="rhombus;whiteSpace=wrap;html=1;rounded=1;" parent="X650mghGrq5uzrF1-Gm_-8" vertex="1">
          <mxGeometry x="205" y="686" width="80" height="65" as="geometry" />
        </mxCell>
        <mxCell id="X650mghGrq5uzrF1-Gm_-24" value="union" style="rounded=1;whiteSpace=wrap;html=1;" parent="X650mghGrq5uzrF1-Gm_-8" vertex="1">
          <mxGeometry x="100" y="698.5" width="80" height="40" as="geometry" />
        </mxCell>
        <mxCell id="X650mghGrq5uzrF1-Gm_-25" style="edgeStyle=orthogonalEdgeStyle;rounded=0;orthogonalLoop=1;jettySize=auto;html=1;entryX=1;entryY=0.5;entryDx=0;entryDy=0;" parent="X650mghGrq5uzrF1-Gm_-8" source="X650mghGrq5uzrF1-Gm_-23" target="X650mghGrq5uzrF1-Gm_-24" edge="1">
          <mxGeometry relative="1" as="geometry" />
        </mxCell>
        <mxCell id="X650mghGrq5uzrF1-Gm_-26" value="all" style="rounded=1;whiteSpace=wrap;html=1;" parent="X650mghGrq5uzrF1-Gm_-8" vertex="1">
          <mxGeometry x="315" y="698.5" width="100" height="40" as="geometry" />
        </mxCell>
        <mxCell id="X650mghGrq5uzrF1-Gm_-27" style="edgeStyle=orthogonalEdgeStyle;rounded=0;orthogonalLoop=1;jettySize=auto;html=1;entryX=0;entryY=0.5;entryDx=0;entryDy=0;" parent="X650mghGrq5uzrF1-Gm_-8" source="X650mghGrq5uzrF1-Gm_-23" target="X650mghGrq5uzrF1-Gm_-26" edge="1">
          <mxGeometry relative="1" as="geometry" />
        </mxCell>
        <mxCell id="X650mghGrq5uzrF1-Gm_-28" value="difference" style="rounded=1;whiteSpace=wrap;html=1;" parent="X650mghGrq5uzrF1-Gm_-8" vertex="1">
          <mxGeometry x="195" y="791" width="100" height="40" as="geometry" />
        </mxCell>
        <mxCell id="X650mghGrq5uzrF1-Gm_-29" style="edgeStyle=orthogonalEdgeStyle;rounded=0;orthogonalLoop=1;jettySize=auto;html=1;" parent="X650mghGrq5uzrF1-Gm_-8" source="X650mghGrq5uzrF1-Gm_-23" target="X650mghGrq5uzrF1-Gm_-28" edge="1">
          <mxGeometry relative="1" as="geometry" />
        </mxCell>
        <mxCell id="X650mghGrq5uzrF1-Gm_-30" value="lookupSetOperation" style="rounded=1;whiteSpace=wrap;html=1;" parent="X650mghGrq5uzrF1-Gm_-8" vertex="1">
          <mxGeometry x="185" y="901" width="120" height="40" as="geometry" />
        </mxCell>
        <mxCell id="X650mghGrq5uzrF1-Gm_-31" style="edgeStyle=orthogonalEdgeStyle;rounded=0;orthogonalLoop=1;jettySize=auto;html=1;" parent="X650mghGrq5uzrF1-Gm_-8" source="X650mghGrq5uzrF1-Gm_-28" target="X650mghGrq5uzrF1-Gm_-30" edge="1">
          <mxGeometry relative="1" as="geometry" />
        </mxCell>
        <mxCell id="X650mghGrq5uzrF1-Gm_-32" style="edgeStyle=orthogonalEdgeStyle;rounded=0;orthogonalLoop=1;jettySize=auto;html=1;" parent="X650mghGrq5uzrF1-Gm_-8" source="X650mghGrq5uzrF1-Gm_-24" target="X650mghGrq5uzrF1-Gm_-30" edge="1">
          <mxGeometry relative="1" as="geometry">
            <Array as="points">
              <mxPoint x="140" y="921" />
            </Array>
          </mxGeometry>
        </mxCell>
        <mxCell id="X650mghGrq5uzrF1-Gm_-33" style="edgeStyle=orthogonalEdgeStyle;rounded=0;orthogonalLoop=1;jettySize=auto;html=1;" parent="X650mghGrq5uzrF1-Gm_-8" source="X650mghGrq5uzrF1-Gm_-26" target="X650mghGrq5uzrF1-Gm_-30" edge="1">
          <mxGeometry relative="1" as="geometry">
            <Array as="points">
              <mxPoint x="365" y="921" />
            </Array>
          </mxGeometry>
        </mxCell>
        <mxCell id="X650mghGrq5uzrF1-Gm_-34" value="" style="edgeStyle=orthogonalEdgeStyle;rounded=0;orthogonalLoop=1;jettySize=auto;html=1;" parent="X650mghGrq5uzrF1-Gm_-8" source="X650mghGrq5uzrF1-Gm_-30" target="X650mghGrq5uzrF1-Gm_-35" edge="1">
          <mxGeometry relative="1" as="geometry">
            <mxPoint x="245" y="981" as="targetPoint" />
          </mxGeometry>
        </mxCell>
        <mxCell id="X650mghGrq5uzrF1-Gm_-35" value="子节点&lt;br&gt;类型" style="rhombus;whiteSpace=wrap;html=1;rounded=1;" parent="X650mghGrq5uzrF1-Gm_-8" vertex="1">
          <mxGeometry x="205" y="1026" width="80" height="65" as="geometry" />
        </mxCell>
        <mxCell id="X650mghGrq5uzrF1-Gm_-36" value="lookupViaComputed" style="rounded=1;whiteSpace=wrap;html=1;" parent="X650mghGrq5uzrF1-Gm_-8" vertex="1">
          <mxGeometry x="360" y="1038.5" width="140" height="40" as="geometry" />
        </mxCell>
        <mxCell id="X650mghGrq5uzrF1-Gm_-37" style="edgeStyle=orthogonalEdgeStyle;rounded=0;orthogonalLoop=1;jettySize=auto;html=1;" parent="X650mghGrq5uzrF1-Gm_-8" source="X650mghGrq5uzrF1-Gm_-35" target="X650mghGrq5uzrF1-Gm_-36" edge="1">
          <mxGeometry relative="1" as="geometry" />
        </mxCell>
        <mxCell id="X650mghGrq5uzrF1-Gm_-38" style="edgeStyle=orthogonalEdgeStyle;rounded=0;orthogonalLoop=1;jettySize=auto;html=1;entryX=0;entryY=0.5;entryDx=0;entryDy=0;" parent="X650mghGrq5uzrF1-Gm_-8" source="X650mghGrq5uzrF1-Gm_-39" target="X650mghGrq5uzrF1-Gm_-19" edge="1">
          <mxGeometry relative="1" as="geometry">
            <Array as="points">
              <mxPoint x="80" y="488" />
            </Array>
          </mxGeometry>
        </mxCell>
        <mxCell id="X650mghGrq5uzrF1-Gm_-39" value="lookupViaRewrite" style="rounded=1;whiteSpace=wrap;html=1;" parent="X650mghGrq5uzrF1-Gm_-8" vertex="1">
          <mxGeometry x="15" y="1038.5" width="140" height="40" as="geometry" />
        </mxCell>
        <mxCell id="X650mghGrq5uzrF1-Gm_-40" style="edgeStyle=orthogonalEdgeStyle;rounded=0;orthogonalLoop=1;jettySize=auto;html=1;" parent="X650mghGrq5uzrF1-Gm_-8" source="X650mghGrq5uzrF1-Gm_-35" target="X650mghGrq5uzrF1-Gm_-39" edge="1">
          <mxGeometry relative="1" as="geometry">
            <mxPoint x="160" y="1058.5" as="targetPoint" />
          </mxGeometry>
        </mxCell>
        <mxCell id="X650mghGrq5uzrF1-Gm_-41" value="lookupViaTupleToUserset" style="rounded=1;whiteSpace=wrap;html=1;" parent="X650mghGrq5uzrF1-Gm_-8" vertex="1">
          <mxGeometry x="175" y="1146" width="140" height="40" as="geometry" />
        </mxCell>
        <mxCell id="X650mghGrq5uzrF1-Gm_-42" style="edgeStyle=orthogonalEdgeStyle;rounded=0;orthogonalLoop=1;jettySize=auto;html=1;" parent="X650mghGrq5uzrF1-Gm_-8" source="X650mghGrq5uzrF1-Gm_-35" target="X650mghGrq5uzrF1-Gm_-41" edge="1">
          <mxGeometry relative="1" as="geometry" />
        </mxCell>
        <mxCell id="X650mghGrq5uzrF1-Gm_-43" style="edgeStyle=orthogonalEdgeStyle;rounded=0;orthogonalLoop=1;jettySize=auto;html=1;entryX=0.5;entryY=1;entryDx=0;entryDy=0;" parent="X650mghGrq5uzrF1-Gm_-8" source="X650mghGrq5uzrF1-Gm_-44" target="X650mghGrq5uzrF1-Gm_-36" edge="1">
          <mxGeometry relative="1" as="geometry" />
        </mxCell>
        <mxCell id="X650mghGrq5uzrF1-Gm_-44" value="union" style="rounded=1;whiteSpace=wrap;html=1;" parent="X650mghGrq5uzrF1-Gm_-8" vertex="1">
          <mxGeometry x="360" y="1146" width="140" height="40" as="geometry" />
        </mxCell>
        <mxCell id="X650mghGrq5uzrF1-Gm_-45" value="" style="edgeStyle=orthogonalEdgeStyle;rounded=0;orthogonalLoop=1;jettySize=auto;html=1;" parent="X650mghGrq5uzrF1-Gm_-8" source="X650mghGrq5uzrF1-Gm_-41" target="X650mghGrq5uzrF1-Gm_-44" edge="1">
          <mxGeometry relative="1" as="geometry" />
        </mxCell>
        <mxCell id="X650mghGrq5uzrF1-Gm_-46" style="edgeStyle=orthogonalEdgeStyle;rounded=0;orthogonalLoop=1;jettySize=auto;html=1;" parent="X650mghGrq5uzrF1-Gm_-1" source="X650mghGrq5uzrF1-Gm_-22" target="X650mghGrq5uzrF1-Gm_-5" edge="1">
          <mxGeometry relative="1" as="geometry" />
        </mxCell>
        <mxCell id="X650mghGrq5uzrF1-Gm_-47" style="edgeStyle=orthogonalEdgeStyle;rounded=0;orthogonalLoop=1;jettySize=auto;html=1;" parent="X650mghGrq5uzrF1-Gm_-1" source="X650mghGrq5uzrF1-Gm_-5" target="X650mghGrq5uzrF1-Gm_-7" edge="1">
          <mxGeometry relative="1" as="geometry" />
        </mxCell>
        <mxCell id="X650mghGrq5uzrF1-Gm_-48" style="edgeStyle=orthogonalEdgeStyle;rounded=0;orthogonalLoop=1;jettySize=auto;html=1;" parent="X650mghGrq5uzrF1-Gm_-1" source="X650mghGrq5uzrF1-Gm_-3" target="X650mghGrq5uzrF1-Gm_-5" edge="1">
          <mxGeometry relative="1" as="geometry" />
        </mxCell>
        <mxCell id="X650mghGrq5uzrF1-Gm_-49" style="edgeStyle=orthogonalEdgeStyle;rounded=0;orthogonalLoop=1;jettySize=auto;html=1;" parent="X650mghGrq5uzrF1-Gm_-1" source="X650mghGrq5uzrF1-Gm_-7" target="X650mghGrq5uzrF1-Gm_-10" edge="1">
          <mxGeometry relative="1" as="geometry" />
        </mxCell>
        <mxCell id="X650mghGrq5uzrF1-Gm_-50" value="dispatch.LookupSubjectsStream" style="swimlane;startSize=20;" parent="X650mghGrq5uzrF1-Gm_-1" vertex="1">
          <mxGeometry x="1150" width="250" height="1201" as="geometry" />
        </mxCell>
        <mxCell id="X650mghGrq5uzrF1-Gm_-51" value="Publish" style="rounded=1;whiteSpace=wrap;html=1;" parent="X650mghGrq5uzrF1-Gm_-50" vertex="1">
          <mxGeometry x="30" y="220" width="100" height="40" as="geometry" />
        </mxCell>
        <mxCell id="X650mghGrq5uzrF1-Gm_-52" style="edgeStyle=orthogonalEdgeStyle;rounded=0;orthogonalLoop=1;jettySize=auto;html=1;" parent="X650mghGrq5uzrF1-Gm_-1" source="X650mghGrq5uzrF1-Gm_-12" target="X650mghGrq5uzrF1-Gm_-51" edge="1">
          <mxGeometry relative="1" as="geometry" />
        </mxCell>
        <mxCell id="X650mghGrq5uzrF1-Gm_-53" style="edgeStyle=orthogonalEdgeStyle;rounded=0;orthogonalLoop=1;jettySize=auto;html=1;" parent="X650mghGrq5uzrF1-Gm_-1" source="X650mghGrq5uzrF1-Gm_-21" target="X650mghGrq5uzrF1-Gm_-51" edge="1">
          <mxGeometry relative="1" as="geometry" />
        </mxCell>
      </root>
    </mxGraphModel>
  </diagram>
</mxfile>
